<svg id="Capa_1" enable-background="new 0 0 512 512" height="512" viewBox="0 0 512 512" width="512" xmlns="http://www.w3.org/2000/svg"><g><path d="m449.676 220.773h-24.73c19.298 0 34.943-15.645 34.943-34.943 0-19.298-15.645-34.943-34.943-34.943h-10.159v-14.13c0-75.523-61.234-136.757-136.756-136.757h-44.051c-75.533 0-136.767 61.234-136.767 136.757v14.13h-10.159c-19.298 0-34.943 15.644-34.943 34.943 0 19.298 15.645 34.943 34.943 34.943h-24.73c-19.299 0-34.943 15.644-34.943 34.943 0 19.298 15.644 34.943 34.943 34.943h30.029c-19.299 0-34.943 15.645-34.943 34.943 0 19.298 15.644 34.943 34.943 34.943h327.294c19.298 0 34.943-15.645 34.943-34.943 0-19.298-15.645-34.943-34.943-34.943h30.029c19.298 0 34.943-15.644 34.943-34.943 0-19.299-15.645-34.943-34.943-34.943z" fill="#efecef"/><path d="m296.583 1.262c-66.756 9.045-118.213 66.272-118.213 135.5v84.011h-10.168c-19.295 0-34.933-19.295-34.933 0 0 .536.01 1.04.031 1.514-14.34 4.358 31.181 17.678 31.181 33.429 0 9.653-4.632 18.389 1.694 24.714 6.325 6.315-32.339 10.23-22.696 10.23h30.03c-19.295 0-34.944 15.648-34.944 34.944 0 9.653 3.915 18.389 10.24 24.714 6.315 6.315 15.051 10.23 24.704 10.23h-81.149c-9.653 0-18.389-3.915-24.714-10.23-6.315-6.325-10.23-15.061-10.23-24.714 0-19.295 15.638-34.944 34.944-34.944h-30.03c-9.653 0-18.389-3.915-24.714-10.23-6.325-6.325-10.23-15.061-10.23-24.714 0-19.295 15.638-34.944 34.944-34.944h24.724c-9.653 0-18.389-3.915-24.704-10.23-6.325-6.325-10.24-15.051-10.24-24.704 0-19.306 15.648-34.944 34.944-34.944h10.158v-14.134c0-75.523 61.234-136.757 136.767-136.757h44.051c6.293.002 12.485.424 18.553 1.259z" fill="#dddaec"/><path d="m255.948 388.09h-4.284c-61.253 0-110.909 49.656-110.909 110.909v13.001h226.101v-13.001c0-61.253-49.655-110.909-110.908-110.909z" fill="#dd636e"/><path d="m246.085 450.045h15.453v61.955h-15.453z" fill="#da4a54"/><path d="m281.035 390.943c-49.171 11.373-85.814 55.434-85.814 108.056v13.001h-54.466v-13.001c0-61.255 49.655-110.909 110.909-110.909h4.275c8.634 0 17.04.989 25.096 2.853z" fill="#da4a54"/><path d="m253.806 467.226c-21.758 0-39.396-17.638-39.396-39.396v-39.396h78.793v39.396c-.001 21.757-17.639 39.396-39.397 39.396z" fill="#eaac9d"/><path d="m387.199 254.486h5.347c18.172 0 32.894 14.721 32.894 32.883 0 9.076-3.678 17.307-9.632 23.261-5.954 5.944-14.175 9.632-23.261 9.632h-7.222-263.037-7.222c-18.172 0-32.894-14.732-32.894-32.894 0-9.076 3.678-17.297 9.632-23.251s14.175-9.632 23.261-9.632h5.347" fill="#eaac9d"/><path d="m387.188 222.416v75.451c0 36.839-14.927 70.176-39.065 94.323-24.147 24.137-57.484 39.064-94.323 39.064-73.668 0-133.398-59.72-133.398-133.388v-75.451c0-7.016.546-13.907 1.587-20.634.597.01 1.195.021 1.803.021 31.678 0 58.689-19.944 69.156-47.965 13.3 19.347 35.593 32.028 60.853 32.028s47.553-12.682 60.853-32.028c10.467 28.021 37.478 47.965 69.156 47.965.598 0 1.195-.01 1.793-.021 1.039 6.728 1.585 13.62 1.585 20.635z" fill="#ffddce"/><path d="m285.448 427.484c-10.147 2.462-20.748 3.77-31.647 3.77-73.668 0-133.398-59.72-133.398-133.388v-75.451c0-7.016.546-13.907 1.587-20.634.597.01 1.195.021 1.803.021 24.632 0 46.451-12.063 59.854-30.607v126.671c-.002 62.78 43.379 115.432 101.801 129.618z" fill="#ffcbbe"/><path d="m253.806 369.462c-14.003 0-28.007-5.33-38.668-15.991-3.017-3.017-3.017-7.909 0-10.927 3.018-3.017 7.909-3.017 10.928 0 15.296 15.296 40.185 15.296 55.481 0 3.018-3.017 7.909-3.017 10.928 0 3.017 3.017 3.017 7.909 0 10.927-10.662 10.661-24.666 15.991-38.669 15.991z" fill="#eaac9d"/><g><path d="m238.626 277.913c0 12.609-6.439 23.715-16.215 30.205-5.728-3.812-12.609-6.027-20.006-6.027s-14.278 2.215-20.006 6.027c-9.776-6.49-16.225-17.595-16.225-30.205 0-20.006 16.225-36.221 36.231-36.221s36.221 16.215 36.221 36.221z" fill="#fff"/><path d="m341.438 277.913c0 12.609-6.439 23.715-16.215 30.205-5.728-3.812-12.609-6.027-20.006-6.027s-14.278 2.215-20.006 6.027c-9.776-6.49-16.225-17.595-16.225-30.205 0-20.006 16.225-36.221 36.231-36.221s36.221 16.215 36.221 36.221z" fill="#fff"/><g fill="#454045"><path d="m207.553 264.17c-7.579 0-13.745 6.167-13.745 13.746 0 7.58 6.166 13.746 13.745 13.746s13.746-6.167 13.746-13.746c.001-7.579-6.166-13.746-13.746-13.746z"/><path d="m300.064 264.17c-7.579 0-13.746 6.167-13.746 13.746 0 7.58 6.167 13.746 13.746 13.746s13.745-6.167 13.745-13.746c.001-7.579-6.165-13.746-13.745-13.746z"/></g></g><path d="m265.796 331.45h-23.98c-4.268 0-7.726-3.459-7.726-7.726s3.459-7.726 7.726-7.726h23.98c4.268 0 7.726 3.459 7.726 7.726 0 4.266-3.459 7.726-7.726 7.726z" fill="#ffcbbe"/><g fill="#efecef"><path d="m309.31 219.072c-.138 0-.275-.004-.413-.011l-19.526-1.028c-4.261-.224-7.533-3.861-7.309-8.122.223-4.262 3.886-7.517 8.122-7.31l19.526 1.028c4.261.224 7.533 3.861 7.309 8.122-.217 4.124-3.629 7.321-7.709 7.321z"/><path d="m198.301 219.072c-4.08 0-7.492-3.197-7.708-7.32-.224-4.261 3.048-7.897 7.309-8.122l19.527-1.028c4.281-.21 7.898 3.048 8.122 7.31.224 4.261-3.048 7.897-7.309 8.122l-19.527 1.028c-.14.006-.277.01-.414.01z"/></g><path d="m414.782 182.002v37.169c0-75.523-61.234-136.757-136.757-136.757h-44.05c-16.802 0-32.894 3.029-47.759 8.571-51.983 19.367-89.008 69.455-89.008 128.185v-37.169c0-68.023 49.676-124.456 114.742-134.995 7.17-1.154 14.526-1.762 22.025-1.762h44.05c75.523.001 136.757 61.235 136.757 136.758z" fill="#9dc6fb"/><path d="m211.949 47.007c-11.136 12.785-19.944 27.671-25.734 43.978-51.983 19.367-89.008 69.455-89.008 128.185v-37.169c.001-68.022 49.676-124.455 114.742-134.994z" fill="#80b4fb"/></g></svg>