<svg id="Capa_1" enable-background="new 0 0 512 512" height="512" viewBox="0 0 512 512" width="512"
	xmlns="http://www.w3.org/2000/svg">
	<g>
		<ellipse cx="373.205" cy="48.31" fill="#e1dee2" rx="43.612" ry="43.612" transform="matrix(.707 -.707 .707 .707 75.149 278.045)"/>
		<path d="m396.86 11.672c8.335 21.866-2.102 46.563-23.838 55.707-13.789 5.801-28.874 3.972-40.566-3.562.179.469.353.938.549 1.404 9.34 22.202 34.909 32.628 57.11 23.288 22.202-9.34 32.628-34.909 23.289-57.11-3.539-8.413-9.411-15.13-16.544-19.727z" fill="#c8c3ca"/>
		<path d="m240.56 0h23.487c71.598 0 126.631 63.358 116.612 134.252l-5.476 38.743h-245.759l-5.476-38.743c-10.02-70.894 45.013-134.252 116.612-134.252z" fill="#e1dee2"/>
		<g fill="#c8c3ca">
			<path d="m252.997 107.753c-3.983 0-7.211-3.228-7.211-7.211v-57.748c0-3.983 3.228-7.211 7.211-7.211s7.211 3.228 7.211 7.211v57.747c0 3.983-3.228 7.212-7.211 7.212z"/>
			<g>
				<path d="m313.967 99.287c-1.107 0-2.229-.256-3.282-.795-3.545-1.816-4.946-6.162-3.13-9.706 6.012-11.734 14.663-21.56 25.018-28.417 3.322-2.198 7.796-1.29 9.994 2.031 2.199 3.321 1.289 7.795-2.031 9.994-8.294 5.492-15.26 13.434-20.145 22.968-1.276 2.492-3.804 3.925-6.424 3.925z"/>
				<path d="m282.396 103.958c-3.933 0-7.15-3.158-7.208-7.105-.311-21.043 6.458-42.329 18.573-58.401 2.397-3.18 6.918-3.814 10.1-1.418 3.18 2.397 3.815 6.919 1.418 10.1-10.223 13.561-15.934 31.605-15.67 49.506.059 3.982-3.121 7.258-7.104 7.317-.036.001-.073.001-.109.001z"/>
				<path d="m192.037 99.298c-2.62 0-5.147-1.433-6.424-3.925-4.892-9.548-11.86-17.493-20.152-22.977-3.322-2.197-4.234-6.671-2.037-9.992 2.196-3.322 6.672-4.234 9.992-2.037 10.356 6.849 19.012 16.68 25.032 28.43 1.816 3.544.415 7.89-3.13 9.706-1.051.54-2.175.795-3.281.795z"/>
				<path d="m223.597 103.947c-.036 0-.072 0-.109-.001-3.982-.058-7.162-3.335-7.104-7.317.264-17.893-5.447-35.933-15.67-49.494-2.397-3.181-1.763-7.702 1.418-10.1 3.181-2.397 7.703-1.763 10.1 1.418 12.114 16.071 18.884 37.353 18.573 58.389-.057 3.946-3.274 7.105-7.208 7.105z"/>
			</g>
		</g>
		<path d="m264.047 0h-23.205c71.598 0 126.631 63.358 116.612 134.252l-5.476 38.743h23.205l5.476-38.743c10.019-70.894-45.014-134.252-116.612-134.252z" fill="#c8c3ca"/>
		<path d="m133.13 150.794h239.733c12.261 0 22.201 9.94 22.201 22.201s-9.94 22.201-22.201 22.201h-239.733c-12.261 0-22.201-9.94-22.201-22.201s9.94-22.201 22.201-22.201z" fill="#f2bb88"/>
		<path d="m214.401 257.602v73.293c0 8.838 2.174 17.627 5.491 25.892 11.954 29.79 54.254 29.79 66.208 0 3.317-8.265 5.491-17.054 5.491-25.892v-73.293z" fill="#f2d1a5"/>
		<path d="m214.401 280.252c19.212 13.975 40.878 19.639 54.838 19.639 6.23 0 13.98-1.131 22.352-3.621v-38.667h-77.191v22.649z" fill="#f2bb88"/>
		<path d="m252.997 93.967c-52.981 0-95.931-43.369-95.931 77.915 0 79.129 65.852 105.392 95.931 105.392s95.523-26.264 95.931-105.392c.626-121.285-42.95-77.915-95.931-77.915z" fill="#f2d1a5"/>
		<path d="m252.997 230.174c-5.839 0-11.678-2.06-17.234-6.181-3.199-2.372-3.869-6.888-1.497-10.088 2.372-3.199 6.89-3.869 10.088-1.497 6.059 4.492 11.229 4.491 17.287 0 3.199-2.372 7.716-1.702 10.088 1.497s1.702 7.715-1.497 10.088c-5.558 4.121-11.397 6.181-17.235 6.181z" fill="#655e67"/>
		<path d="m302.34 330.761v-11.25c0-4.326-3.509-7.831-7.835-7.831h-83.016c-4.326 0-7.836 3.505-7.836 7.831v11.25c0 .433-.267.819-.674.965-51.942 18.607-93.212 70.306-107.734 172.084-.617 4.323 2.76 8.19 7.127 8.19h301.249c4.367 0 7.744-3.866 7.127-8.19-14.522-101.778-55.791-153.478-107.733-172.085-.407-.146-.675-.531-.675-.964z" fill="#9ec8fc"/>
		<path d="m410.749 503.81c-14.522-101.778-55.791-153.478-107.733-172.085-.407-.146-.676-.531-.676-.964v-11.25c0-4.326-3.509-7.831-7.835-7.831h-30.731c4.326 0 7.832 3.506 7.832 7.831v18.462c0 .433.271.816.679.962 51.942 18.607 93.21 70.309 107.732 172.087.047.33.063.655.065.978h23.54c4.367 0 7.743-3.866 7.127-8.19z" fill="#80b6fc"/>
		<g fill="#e3a76f">
			<path d="m294.764 235.051c-.62 0-1.25-.08-1.876-.249-3.846-1.034-6.126-4.99-5.093-8.836 1.001-3.724.373-8.219-1.563-11.185-2.178-3.335-1.239-7.803 2.096-9.98 3.334-2.178 7.804-1.239 9.98 2.096 4.172 6.389 5.48 15.131 3.415 22.813-.864 3.219-3.777 5.341-6.959 5.341z"/>
			<path d="m211.229 235.051c-3.182 0-6.094-2.122-6.959-5.341-2.066-7.682-.757-16.424 3.415-22.814 2.177-3.335 6.645-4.274 9.981-2.096 3.335 2.178 4.273 6.646 2.096 9.981-1.937 2.966-2.565 7.46-1.564 11.184 1.034 3.846-1.245 7.802-5.092 8.836-.627.169-1.257.25-1.877.25z"/>
		</g>
		<path d="m340.305 468.259-20.985 16.689c-3.163 2.524-7.654 2.524-10.817 0l-19.646-15.618c-3.163-2.514-7.654-2.514-10.817 0l-19.635 15.618c-3.173 2.524-7.654 2.524-10.817 0l-19.646-15.618c-3.163-2.514-7.654-2.514-10.817 0l-19.646 15.618c-3.163 2.524-7.644 2.524-10.817 0l-20.974-16.689c1.35-11.569 2.874-22.468 4.553-32.719l16.421 13.063c3.173 2.524 7.654 2.524 10.817 0l19.646-15.617c3.163-2.524 7.654-2.524 10.817 0l19.646 15.617c3.163 2.524 7.644 2.524 10.817 0l19.635-15.617c3.163-2.524 7.654-2.524 10.817 0l19.646 15.617c3.163 2.524 7.654 2.524 10.817 0l16.431-13.063c1.679 10.25 3.204 21.15 4.554 32.719z" fill="#edf6ff"/>
		<path d="m380.09 186.761c-8.01 0-14.503 6.493-14.503 14.503s6.493 14.503 14.503 14.503 14.503-6.493 14.503-14.503c-.001-8.01-6.494-14.503-14.503-14.503z" fill="#f8e883"/>
		<path d="m125.904 186.761c-8.01 0-14.503 6.493-14.503 14.503s6.493 14.503 14.503 14.503 14.503-6.493 14.503-14.503-6.493-14.503-14.503-14.503z" fill="#f8e883"/>
		<g fill="#655e67">
			<path d="m297.853 158.424c-3.983 0-7.211-3.228-7.211-7.211v-1.03c0-3.983 3.228-7.211 7.211-7.211s7.211 3.228 7.211 7.211v1.03c0 3.983-3.229 7.211-7.211 7.211z"/>
			<path d="m297.853 185.836c-19.092 0-34.623-15.532-34.623-34.623s15.532-34.623 34.623-34.623 34.623 15.532 34.623 34.623-15.532 34.623-34.623 34.623zm0-54.823c-11.139 0-20.201 9.062-20.201 20.2s9.062 20.2 20.201 20.2c11.138 0 20.2-9.062 20.2-20.2 0-11.139-9.062-20.2-20.2-20.2z"/>
			<path d="m212.12 158.424c-3.983 0-7.211-3.228-7.211-7.211v-1.03c0-3.983 3.228-7.211 7.211-7.211s7.211 3.228 7.211 7.211v1.03c0 3.983-3.228 7.211-7.211 7.211z"/>
			<path d="m212.12 185.836c-19.091 0-34.623-15.532-34.623-34.623s15.532-34.623 34.623-34.623c19.092 0 34.623 15.532 34.623 34.623s-15.531 34.623-34.623 34.623zm0-54.823c-11.138 0-20.2 9.062-20.2 20.2s9.062 20.2 20.2 20.2c11.139 0 20.201-9.062 20.201-20.2 0-11.139-9.062-20.2-20.201-20.2z"/>
			<path d="m270.435 158.425c-1.466 0-2.946-.446-4.224-1.372-11.472-8.31-17.125-5.295-21.524-.797-2.785 2.847-7.351 2.896-10.198.111s-2.896-7.351-.111-10.198c7.831-8.005 21.181-14.642 40.293-.797 3.225 2.337 3.946 6.845 1.61 10.07-1.411 1.948-3.613 2.983-5.846 2.983z"/>
			<path d="m348.52 158.424h-23.256c-3.983 0-7.211-3.228-7.211-7.211s3.228-7.211 7.211-7.211h23.256c3.983 0 7.211 3.228 7.211 7.211s-3.228 7.211-7.211 7.211z"/>
			<path d="m184.709 158.424h-27.157c-3.983 0-7.211-3.228-7.211-7.211s3.228-7.211 7.211-7.211h27.157c3.983 0 7.211 3.228 7.211 7.211s-3.228 7.211-7.211 7.211z"/>
		</g>
		<g fill="#80b6fc">
			<path d="m169.367 512c1.079-14.976 2.423-29.389 3.996-42.845 1.307-11.182 2.822-22.073 4.505-32.37 1.151-7.046 2.398-13.902 3.708-20.379.846-4.183-1.859-8.259-6.042-9.104-4.181-.847-8.259 1.859-9.104 6.042-1.348 6.665-2.631 13.715-3.812 20.951-1.72 10.528-3.268 21.653-4.602 33.067-1.619 13.85-2.999 28.683-4.102 44.087-.013.186-.011.368-.012.552h15.465z"/>
			<path d="m352.08 511.448c-1.103-15.4-2.482-30.233-4.102-44.087-1.335-11.418-2.883-22.543-4.603-33.067-1.182-7.236-2.464-14.285-3.812-20.951-.845-4.183-4.919-6.887-9.104-6.042-4.183.846-6.888 4.922-6.042 9.104 1.309 6.477 2.557 13.333 3.708 20.379 1.682 10.294 3.197 21.185 4.505 32.37 1.573 13.459 2.916 27.872 3.995 42.845h15.466c.001-.182.003-.365-.011-.551z"/>
		</g>
	</g>
</svg>