<svg id="Capa_1" enable-background="new 0 0 510.204 510.204" height="512" viewBox="0 0 510.204 510.204" width="512" xmlns="http://www.w3.org/2000/svg"><g><path d="m461.049 147.938c0-24.729-13.264-46.352-33.06-58.166 1.03-4.695 1.59-9.567 1.59-14.572 0-37.389-30.31-67.7-67.7-67.7-11.591 0-22.499 2.918-32.037 8.052-9.538-5.134-20.446-8.052-32.037-8.052-15.857 0-30.429 5.467-41.967 14.598-11.539-9.132-26.111-14.598-41.968-14.598-12.335 0-23.89 3.316-33.85 9.079-9.96-5.764-21.514-9.079-33.85-9.079-37.389 0-67.7 30.31-67.7 67.7 0 5.005.559 9.877 1.59 14.572-19.796 11.814-33.06 33.437-33.06 58.166 0 24.805 13.348 46.482 33.245 58.272-10.446 11.913-16.792 27.512-16.792 44.601 0 37.389 30.31 67.7 67.7 67.7 37.389 0 67.7-30.31 67.7-67.7 0-24.805-13.348-46.482-33.245-58.273 10.446-11.913 16.792-27.512 16.792-44.601 0-4.633-.468-9.157-1.355-13.529 9.725 5.403 20.912 8.491 32.826 8.491 15.857 0 30.429-5.467 41.967-14.598 11.538 9.132 26.11 14.598 41.967 14.598 10.315 0 20.085-2.317 28.834-6.443-.638 3.734-.989 7.565-.989 11.481 0 17.089 6.346 32.688 16.792 44.601-19.897 11.79-33.245 33.468-33.245 58.273 0 37.389 30.31 67.7 67.7 67.7s67.7-30.31 67.7-67.7c0-17.09-6.345-32.688-16.792-44.601 19.896-11.79 33.244-33.467 33.244-58.272z" fill="#ebe6e3"/><path d="m461.05 147.938c0-24.729-13.265-46.352-33.061-58.166 1.03-4.695 1.589-9.567 1.589-14.572 0-37.389-30.31-67.7-67.7-67.7-5.167 0-10.197.583-15.032 1.681 30.184 6.815 52.732 33.775 52.732 66.019 0 5.005-.559 9.877-1.589 14.572 19.796 11.815 33.061 33.438 33.061 58.166 0 24.805-13.348 46.482-33.245 58.272 10.446 11.913 16.792 27.512 16.792 44.601 0 32.232-22.533 59.184-52.7 66.011 4.827 1.092 9.842 1.688 15 1.688 37.389 0 67.7-30.31 67.7-67.7 0-17.09-6.346-32.688-16.792-44.601 19.896-11.789 33.245-33.466 33.245-58.271z" fill="#e0dcd9"/><path d="m292.976 355.495h21.124c50.135 0 90.778 40.643 90.778 90.778v48.009c0 4.651-3.771 8.422-8.422 8.422h-280.439c-4.651 0-8.422-3.771-8.422-8.422v-48.009c0-50.135 40.643-90.778 90.778-90.778h21.124" fill="#fafafa"/><path d="m258.047 391.646h-3.621c-18.112 0-32.794-14.682-32.794-32.794v-91.682h69.21v91.682c0 18.112-14.683 32.794-32.795 32.794z" fill="#fedbbd"/><g fill="#fee5d0"><ellipse cx="138.959" cy="192.698" rx="36.7" ry="37.212"/><ellipse cx="373.514" cy="192.698" rx="36.7" ry="37.212"/><path d="m142.463 115.53c-2.284 9.136-3.503 18.693-3.503 28.537v83.333c0 54.638 44.293 98.932 98.932 98.932h36.692c54.638 0 98.932-44.293 98.932-98.932v-83.334c0-9.844-1.22-19.401-3.504-28.537h-227.549z"/></g><path d="m370.011 115.53h-30c2.284 9.136 3.504 18.693 3.504 28.537v83.333c0 54.638-44.294 98.932-98.932 98.932h30c54.638 0 98.932-44.293 98.932-98.932v-83.334c-.001-9.843-1.22-19.401-3.504-28.536z" fill="#fedbbd"/><path d="m127.51 61.393c-4.294 9.929-6.719 21.629-6.719 35.423 0 36.408 29.515 65.923 65.923 65.923 23.555 0 44.211-12.363 55.87-30.945 13.928 23.611 39.621 39.455 69.019 39.455 44.227 0 80.08-35.853 80.08-80.08 0-10.634-2.08-20.655-5.848-29.776z" fill="#ebe6e3"/><path d="m186.774 356.229c-44.658 5.696-79.178 43.838-79.178 90.043v48.009c0 4.651 3.771 8.422 8.421 8.422h70.757z" fill="#e27c48"/><path d="m325.699 356.229v146.474h70.757c4.651 0 8.422-3.771 8.422-8.422v-48.009c0-46.205-34.521-84.347-79.179-90.043z" fill="#e27c48"/><path d="m325.699 356.229v9.36c29.204 15.088 49.178 45.545 49.178 80.683v48.009c0 4.651-3.771 8.422-8.422 8.422h30c4.651 0 8.422-3.771 8.422-8.422v-48.009c.001-46.205-34.52-84.347-79.178-90.043z" fill="#df6937"/><g><path d="m468.55 147.938c0-24.571-12.247-47.767-32.284-61.743.541-3.653.813-7.334.813-10.995 0-41.465-33.734-75.2-75.2-75.2-11.075 0-22.069 2.465-32.037 7.156-9.968-4.691-20.962-7.156-32.038-7.156-15.159 0-29.554 4.41-41.967 12.807-12.412-8.397-26.807-12.807-41.967-12.807-11.77 0-23.386 2.774-33.85 8.055-10.464-5.281-22.08-8.055-33.849-8.055-41.466 0-75.2 33.734-75.2 75.2 0 3.659.272 7.337.813 10.988-14.521 10.079-24.961 24.786-29.637 41.915-1.091 3.996 1.265 8.12 5.261 9.21 3.995 1.091 8.119-1.264 9.21-5.26 4.112-15.065 13.803-27.794 27.287-35.842 2.771-1.654 4.174-4.895 3.482-8.048-.939-4.281-1.416-8.643-1.416-12.964 0-33.194 27.006-60.2 60.2-60.2 10.563 0 20.97 2.791 30.093 8.071 2.324 1.345 5.19 1.345 7.514 0 9.122-5.279 19.528-8.07 30.092-8.07 13.682 0 26.585 4.488 37.313 12.979 2.727 2.158 6.582 2.158 9.309 0 10.728-8.491 23.631-12.979 37.312-12.979 9.936 0 19.785 2.474 28.482 7.156 2.219 1.194 4.891 1.194 7.109 0 8.699-4.682 18.548-7.156 28.484-7.156 33.194 0 60.2 27.005 60.2 60.2 0 4.322-.477 8.684-1.416 12.964-.691 3.152.711 6.394 3.482 8.048 18.138 10.825 29.404 30.645 29.404 51.726 0 21.157-11.33 41.013-29.568 51.82-1.919 1.137-3.232 3.069-3.583 5.272-.352 2.203.296 4.447 1.767 6.125 9.628 10.982 14.931 25.066 14.931 39.657 0 33.194-27.005 60.2-60.199 60.2-9.999 0-19.702-2.448-28.397-7.112 17.914-17.315 29.781-40.844 32.093-67.076 21.065-3.464 37.122-22.22 37.122-44.126 0-21.974-15.59-40.428-36.7-44.06v-4.047c5.709-7.412 10.3-15.81 13.452-25.002 1.344-3.918-.744-8.184-4.662-9.527-3.913-1.342-8.184.743-9.527 4.662-10.056 29.324-37.653 49.026-68.675 49.026-25.574 0-49.546-13.705-62.559-35.766-1.33-2.255-3.739-3.653-6.357-3.689-2.644-.041-5.064 1.296-6.456 3.513-10.776 17.176-29.286 27.431-49.516 27.431-25.936 0-49.033-17.391-56.17-42.291-1.142-3.982-5.295-6.283-9.276-5.143-3.981 1.141-6.284 5.294-5.144 9.276 3.031 10.576 8.359 20.068 15.334 28.01v3.548c-21.108 3.633-36.699 22.093-36.699 44.06 0 21.856 15.436 40.39 36.703 44.07l.28-1.618c1.887 26.102 13.229 49.624 30.609 67.151-9.38 5.709-20.057 8.711-31.198 8.711-33.194 0-60.199-27.005-60.199-60.2 0-14.592 5.303-28.676 14.931-39.657 1.471-1.677 2.118-3.922 1.767-6.124-.351-2.203-1.664-4.135-3.583-5.272-13.625-8.074-23.703-21.447-27.651-36.691-1.039-4.01-5.126-6.419-9.142-5.38-4.01 1.039-6.418 5.131-5.38 9.141 4.228 16.32 14.069 30.919 27.496 41.105-8.714 12.538-13.438 27.48-13.438 42.878 0 41.465 33.734 75.2 75.199 75.2 15.508 0 30.304-4.658 42.94-13.472 11.716 8.801 25.298 15.243 40.038 18.617v16.839h-15.758c-54.191 0-98.278 44.087-98.278 98.278v48.009c0 8.779 7.143 15.922 15.922 15.922h280.438c8.779 0 15.922-7.142 15.922-15.922v-48.009c0-6.762-.692-13.523-2.058-20.094-.842-4.056-4.815-6.66-8.868-5.818-4.056.843-6.66 4.813-5.818 8.869 1.157 5.57 1.744 11.304 1.744 17.043v48.009c0 .508-.413.922-.922.922h-63.257v-130.009c21.236 4.964 39.692 18.075 51.487 36.863 1.424 2.269 3.863 3.513 6.358 3.513 1.363 0 2.742-.371 3.98-1.149 3.509-2.202 4.567-6.832 2.364-10.34-15.732-25.058-41.516-41.567-70.741-45.295-4.134-.527-8.355-.794-12.549-.794h-15.758v-16.839c13.862-3.173 26.702-9.059 37.926-17.07 12.122 7.8 26.127 11.925 40.628 11.925 41.465 0 75.199-33.734 75.199-75.2 0-15.396-4.724-30.339-13.437-42.876 18.622-14.112 29.894-36.406 29.894-59.997zm-65.835 44.759c0 13.562-9.198 25.302-21.7 28.709v-57.433c12.636 3.377 21.7 15.018 21.7 28.724zm-292.955 0c0-13.702 9.065-25.347 21.699-28.724v57.45c-12.718-3.4-21.699-15.085-21.699-28.726zm36.699-34.573c11.706 7.694 25.618 12.115 40.256 12.115 21.674 0 41.774-9.361 55.62-25.49 16.465 21.203 42.115 34.001 69.268 34.001 20.247 0 39.278-6.968 54.412-18.957v67.607c0 50.415-41.016 91.432-91.432 91.432h-36.693c-50.416 0-91.432-41.016-91.432-91.432v-69.276zm-31.364 336.158v-48.009c0-39.346 27.438-72.384 64.179-81.042v129.973h-63.257c-.508 0-.922-.414-.922-.922zm203.104-131.177v132.099h-123.925v-132.105c1.359-.066 2.725-.104 4.1-.104h15.97c2.081 20.279 19.262 36.151 40.082 36.151h3.622c20.819 0 38.001-15.872 40.082-36.151h15.97c1.365 0 2.733.044 4.099.11zm-34.857-4.253c0 13.947-11.347 25.294-25.294 25.294h-3.622c-13.947 0-25.294-11.347-25.294-25.294v-25.383c2.889.237 5.809.363 8.759.363h36.692c2.949 0 5.869-.126 8.759-.363z"/><path d="m195.5 210.098h12.747c-.663 1.304-1.044 2.779-1.044 4.348 0 5.253 4.2 9.511 9.38 9.511s9.38-4.258 9.38-9.511c0-2.204-.747-4.228-1.988-5.84 1.832-1.367 3.023-3.545 3.023-6.007 0-4.142-3.357-7.5-7.5-7.5h-23.998c-4.143 0-7.5 3.358-7.5 7.5s3.357 7.499 7.5 7.499z"/><path d="m288.498 208.605c-1.241 1.613-1.987 3.636-1.987 5.84 0 5.253 4.199 9.511 9.38 9.511 5.18 0 9.38-4.258 9.38-9.511 0-1.568-.381-3.044-1.044-4.348h12.747c4.142 0 7.5-3.358 7.5-7.5s-3.358-7.5-7.5-7.5h-23.998c-4.143 0-7.5 3.358-7.5 7.5-.001 2.463 1.191 4.641 3.022 6.008z"/><path d="m256.237 278.979c14.27 0 25.878-11.724 25.878-26.135 0-4.142-3.357-7.5-7.5-7.5s-7.5 3.358-7.5 7.5c0 6.14-4.88 11.135-10.878 11.135-5.999 0-10.879-4.995-10.879-11.135 0-4.142-3.357-7.5-7.5-7.5s-7.5 3.358-7.5 7.5c0 14.411 11.61 26.135 25.879 26.135z"/><path d="m184.354 86.087c3.007-2.891 6.959-4.43 11.131-4.354 4.171.083 8.06 1.785 10.95 4.792 1.473 1.532 3.439 2.303 5.408 2.303 1.869 0 3.742-.695 5.196-2.093 2.986-2.87 3.08-7.618.21-10.604-11.699-12.172-31.117-12.557-43.29-.859-2.986 2.87-3.08 7.618-.21 10.604 2.871 2.987 7.619 3.081 10.605.211z"/><path d="m305.828 66.606c3.008-2.891 6.979-4.429 11.131-4.354 4.171.083 8.06 1.785 10.95 4.792 1.473 1.532 3.439 2.303 5.408 2.303 1.869 0 3.742-.695 5.196-2.093 2.986-2.87 3.08-7.618.21-10.604-11.699-12.172-31.117-12.557-43.29-.859-2.986 2.87-3.08 7.618-.21 10.604 2.871 2.987 7.619 3.082 10.605.211z"/></g></g></svg>